HIERARCHY
ROOT Hips
{
	OFFSET 0.000000 0.000000 0.000000
	CHANNELS 6 Xposition Yposition Zposition Xrotation Yrotation Zrotation
	JOINT Chest
	{
		OFFSET 0.000000 0.009282 11.569106
		CHANNELS 3 Xrotation Yrotation Zrotation
		JOINT Chest2
		{
			OFFSET 0.000000 -0.016863 9.269641
			CHANNELS 3 Xrotation Yrotation Zrotation
			JOINT Chest3
			{
				OFFSET 0.000000 0.000000 8.374491
				CHANNELS 3 Xrotation Yrotation Zrotation
				JOINT Chest4
				{
					OFFSET 0.000000 0.000000 8.374493
					CHANNELS 3 Xrotation Yrotation Zrotation
					JOINT Neck
					{
						OFFSET 0.000000 -0.000001 12.152554
						CHANNELS 3 Xrotation Yrotation Zrotation
						JOINT Head
						{
							OFFSET 0.000000 -0.040100 7.802319
							CHANNELS 3 Xrotation Yrotation Zrotation
							End Site
							{
								OFFSET 0.000000 -0.020946 14.853096
							}
						}
					}
					JOINT RightCollar
					{
						OFFSET -2.894404 0.000000 6.791374
						CHANNELS 3 Xrotation Yrotation Zrotation
						JOINT RightShoulder
						{
							OFFSET -13.574684 0.000000 0.000000
							CHANNELS 3 Xrotation Yrotation Zrotation
							JOINT RightElbow
							{
								OFFSET -23.923903 0.000000 0.000000
								CHANNELS 3 Xrotation Yrotation Zrotation
								JOINT RightWrist
								{
									OFFSET -19.846718 -0.012765 0.000000
									CHANNELS 3 Xrotation Yrotation Zrotation
									End Site
									{
										OFFSET -14.973145 0.000000 0.000000
									}
								}
							}
						}
					}
					JOINT LeftCollar
					{
						OFFSET 2.894404 0.000000 6.791374
						CHANNELS 3 Xrotation Yrotation Zrotation
						JOINT LeftShoulder
						{
							OFFSET 13.574684 0.000000 0.000000
							CHANNELS 3 Xrotation Yrotation Zrotation
							JOINT LeftElbow
							{
								OFFSET 23.923903 0.000000 0.000000
								CHANNELS 3 Xrotation Yrotation Zrotation
								JOINT LeftWrist
								{
									OFFSET 19.846718 -0.012765 0.000000
									CHANNELS 3 Xrotation Yrotation Zrotation
									End Site
									{
										OFFSET 14.973145 0.000000 0.000000
									}
								}
							}
						}
					}
				}
			}
		}
	}
	JOINT RightHip
	{
		OFFSET -9.469263 -0.004642 0.045487
		CHANNELS 3 Xrotation Yrotation Zrotation
		JOINT RightKnee
		{
			OFFSET 0.000000 -0.002666 -40.478676
			CHANNELS 3 Xrotation Yrotation Zrotation
			JOINT RightAnkle
			{
				OFFSET 0.000000 -0.049110 -35.224068
				CHANNELS 3 Xrotation Yrotation Zrotation
				JOINT RightToe
				{
					OFFSET 0.000000 -12.539530 -6.151390
					CHANNELS 3 Xrotation Yrotation Zrotation
					End Site
					{
						OFFSET 0.000000 -5.044995 -1.291870
					}
				}
			}
		}
	}
	JOINT LeftHip
	{
		OFFSET 9.469263 -0.004642 0.045487
		CHANNELS 3 Xrotation Yrotation Zrotation
		JOINT LeftKnee
		{
			OFFSET 0.000000 -0.002666 -40.478676
			CHANNELS 3 Xrotation Yrotation Zrotation
			JOINT LeftAnkle
			{
				OFFSET 0.000000 -0.049110 -35.224068
				CHANNELS 3 Xrotation Yrotation Zrotation
				JOINT LeftToe
				{
					OFFSET 0.000000 -12.539530 -6.151390
					CHANNELS 3 Xrotation Yrotation Zrotation
					End Site
					{
						OFFSET 0.000000 -5.044995 -1.291870
					}
				}
			}
		}
	}
}
MOTION
Frames: 11
Frame Time: 0.016667
-14.290342 -5.079251 82.849358 1.629192 4.343210 -108.741543 2.782313 0.041220 -0.238818 1.235353 0.019120 -0.104425 1.235353 0.019120 -0.104421 0.926512 0.014551 -0.078279 15.689416 -0.545681 -2.016224 -7.037685 -0.255691 -3.869534 -28.082456 0.383471 -0.200851 -45.363552 -36.329134 38.513207 -51.882991 -25.787147 21.107941 -35.844443 38.569545 13.796815 -17.442357 -0.978078 -3.277574 -57.673762 33.599353 -32.669143 -44.362000 23.027570 -21.965660 -36.475020 -39.357343 -9.672369 9.812746 0.184238 -3.112789 1.139569 -1.744677 -5.959194 -5.982997 1.183899 1.199197 0.009447 -0.009402 0.001042 10.263070 0.680035 2.677372 0.277521 -0.991105 0.870697 -5.589586 1.416324 0.744076 0.009637 -0.000239 -0.000673 
-14.290407 -5.084025 82.849594 1.632932 4.345054 -108.749568 2.789694 0.043858 -0.232272 1.238686 0.020243 -0.101577 1.238686 0.020243 -0.101575 0.929011 0.015388 -0.076139 15.675139 -0.539592 -2.014505 -7.064062 -0.244826 -3.864219 -28.071417 0.382625 -0.212169 -45.387345 -36.353573 38.506742 -51.852317 -25.803090 21.131333 -35.790232 38.559269 13.777338 -17.436095 -0.978137 -3.289803 -57.681146 33.593036 -32.665175 -44.347998 23.043673 -21.980023 -36.519717 -39.362718 -9.687646 9.810511 0.188104 -3.108113 1.145905 -1.747749 -5.962874 -5.982736 1.182563 1.214596 0.008521 -0.008776 0.000989 10.268506 0.678808 2.683018 0.271932 -0.985324 0.878367 -5.585969 1.413919 0.737960 0.009232 -0.002600 -0.000118 
-14.288788 -5.088350 82.850105 1.635091 4.347463 -108.756248 2.799251 0.041708 -0.234968 1.243106 0.019523 -0.103243 1.243106 0.019523 -0.103242 0.932327 0.014851 -0.077395 15.657669 -0.528350 -2.005859 -7.096332 -0.227029 -3.844411 -28.086114 0.374211 -0.195207 -45.373469 -36.345868 38.510703 -51.829805 -25.802602 21.143230 -35.751444 38.526498 13.761224 -17.457936 -0.986706 -3.253796 -57.655321 33.621405 -32.676632 -44.365825 23.047514 -21.976876 -36.551904 -39.358234 -9.704528 9.806354 0.192484 -3.097171 1.153697 -1.752008 -5.962944 -5.982038 1.184458 1.210376 0.007585 -0.008273 0.000955 10.269878 0.678868 2.691280 0.273055 -0.980863 0.877239 -5.586194 1.412105 0.739850 0.009810 -0.004364 0.000450 
-14.286354 -5.091646 82.850220 1.638316 4.348015 -108.760210 2.812676 0.039408 -0.237211 1.248983 0.018584 -0.104523 1.248983 0.018584 -0.104521 0.936734 0.014152 -0.078355 15.636596 -0.515826 -1.995628 -7.135293 -0.207381 -3.821253 -28.109620 0.373521 -0.186650 -45.338925 -36.327720 38.524651 -51.827930 -25.802481 21.152068 -35.757922 38.482980 13.756008 -17.485711 -0.984005 -3.254974 -57.632562 33.611306 -32.678494 -44.387559 23.037863 -21.975428 -36.584788 -39.325470 -9.696417 9.799710 0.190762 -3.076093 1.163219 -1.750597 -5.967221 -5.982408 1.187135 1.197271 0.006939 -0.009437 0.001858 10.270280 0.677074 2.691785 0.272116 -0.977343 0.884819 -5.585162 1.410616 0.738627 0.010869 -0.005154 0.000122 
-14.284799 -5.095696 82.850258 1.640661 4.349530 -108.760142 2.832775 0.043923 -0.240141 1.257589 0.020250 -0.105785 1.257589 0.020250 -0.105785 0.943188 0.015405 -0.079298 15.613954 -0.508004 -1.982657 -7.177350 -0.197254 -3.794818 -28.117864 0.365744 -0.187305 -45.309853 -36.295960 38.533086 -51.853311 -25.814548 21.159574 -35.773952 38.410009 13.734569 -17.468181 -1.003649 -3.250874 -57.678414 33.614820 -32.669560 -44.379806 23.031867 -21.985660 -36.620585 -39.320634 -9.704129 9.794644 0.189715 -3.062910 1.174431 -1.747855 -5.974930 -5.984607 1.186358 1.185275 0.006045 -0.009635 0.001818 10.269408 0.677004 2.692670 0.274369 -0.973579 0.894814 -5.585078 1.408080 0.736807 0.011623 -0.005656 -0.000401 
-14.285108 -5.100471 82.850945 1.643949 4.349829 -108.760886 2.848748 0.049820 -0.242482 1.264464 0.022487 -0.106786 1.264464 0.022487 -0.106782 0.948344 0.017086 -0.080045 15.595159 -0.505764 -1.967900 -7.212450 -0.198054 -3.767197 -28.102304 0.369138 -0.200988 -45.292204 -36.282054 38.551142 -51.882110 -25.811927 21.160425 -35.786360 38.337415 13.714618 -17.469723 -1.007867 -3.258262 -57.680633 33.601512 -32.668238 -44.339457 23.019614 -22.016138 -36.619701 -39.307069 -9.707112 9.791222 0.189985 -3.063876 1.181978 -1.745854 -5.971018 -5.983085 1.183370 1.182642 0.003791 -0.009339 0.001806 10.268199 0.677728 2.701554 0.278346 -0.973345 0.901277 -5.586496 1.408235 0.727209 0.011634 -0.006567 -0.001088 
-14.286381 -5.105971 82.851730 1.647046 4.350512 -108.763297 2.856058 0.055621 -0.240831 1.267937 0.024934 -0.106222 1.267937 0.024934 -0.106217 0.950948 0.018920 -0.079614 15.583714 -0.505860 -1.956421 -7.233913 -0.202116 -3.746357 -28.088449 0.366771 -0.207550 -45.312243 -36.283577 38.544728 -51.847795 -25.794390 21.158106 -35.783429 38.316661 13.710423 -17.483457 -1.010072 -3.260273 -57.637863 33.591178 -32.674112 -44.308568 23.031102 -22.051966 -36.617191 -39.280285 -9.712450 9.788544 0.190454 -3.062903 1.188243 -1.743224 -5.967437 -5.980803 1.179457 1.181800 0.001913 -0.008536 0.002123 10.269655 0.681556 2.718116 0.277772 -0.975501 0.895953 -5.585747 1.407960 0.725509 0.011301 -0.007386 -0.001578 
-14.287659 -5.111038 82.851921 1.649770 4.348688 -108.762764 2.855880 0.060495 -0.241741 1.268062 0.027166 -0.106662 1.268062 0.027166 -0.106668 0.951042 0.020596 -0.079945 15.577430 -0.503357 -1.948071 -7.245664 -0.200452 -3.730263 -28.095063 0.352646 -0.195376 -45.317093 -36.285206 38.526194 -51.800438 -25.778379 21.160350 -35.767870 38.286677 13.707957 -17.459997 -1.015871 -3.257305 -57.629639 33.587059 -32.674013 -44.294251 23.051166 -22.071203 -36.602878 -39.234522 -9.694035 9.784581 0.191577 -3.060308 1.193333 -1.745293 -5.970894 -5.980080 1.180541 1.182542 0.001209 -0.009859 0.002667 10.268744 0.679586 2.728559 0.277241 -0.971337 0.890533 -5.585327 1.406731 0.721499 0.011429 -0.008750 -0.001397 
-14.288713 -5.116148 82.851654 1.651298 4.347190 -108.760237 2.856087 0.065691 -0.240147 1.268150 0.029428 -0.106356 1.268150 0.029428 -0.106358 0.951107 0.022292 -0.079708 15.573120 -0.502765 -1.946122 -7.253692 -0.199970 -3.726510 -28.113262 0.339583 -0.192794 -45.292456 -36.282508 38.521779 -51.770372 -25.778205 21.168636 -35.749849 38.224112 13.682653 -17.446955 -1.021020 -3.260254 -57.633976 33.592769 -32.664102 -44.273672 23.072005 -22.071345 -36.581831 -39.197226 -9.662904 9.780390 0.195472 -3.056949 1.198537 -1.747870 -5.980124 -5.979855 1.178084 1.197934 0.001183 -0.009416 0.002554 10.268850 0.679542 2.735486 0.274577 -0.967744 0.894382 -5.585514 1.405898 0.712135 0.013162 -0.009917 -0.001237 
-14.289735 -5.122647 82.851776 1.655968 4.346898 -108.758359 2.859419 0.068535 -0.235097 1.269723 0.030358 -0.104534 1.269723 0.030358 -0.104536 0.952286 0.022986 -0.078338 15.569165 -0.503714 -1.950526 -7.260966 -0.199970 -3.734870 -28.090512 0.345896 -0.204430 -45.311434 -36.283034 38.505133 -51.748505 -25.813665 21.187648 -35.740956 38.142782 13.645493 -17.474209 -1.016541 -3.269802 -57.604019 33.595129 -32.657105 -44.264332 23.103448 -22.060256 -36.591796 -39.191311 -9.655128 9.774992 0.198420 -3.049220 1.209596 -1.752865 -5.988356 -5.981723 1.177138 1.207210 0.000724 -0.009281 0.002101 10.268354 0.674619 2.734978 0.277810 -0.958901 0.901852 -5.588858 1.400692 0.700916 0.014798 -0.010054 -0.001059 
-14.289860 -5.129124 82.852417 1.660172 4.351659 -108.753161 2.864003 0.069598 -0.233461 1.272013 0.030840 -0.104216 1.272013 0.030840 -0.104213 0.954005 0.023348 -0.078100 15.567482 -0.502734 -1.955814 -7.263969 -0.196199 -3.744133 -28.074700 0.345701 -0.210636 -45.334739 -36.291104 38.498539 -51.715136 -25.842361 21.192349 -35.723955 38.064057 13.616671 -17.455636 -1.024473 -3.265137 -57.583706 33.597619 -32.662617 -44.284573 23.126688 -22.064545 -36.597117 -39.205422 -9.668106 9.775386 0.198708 -3.038341 1.217657 -1.752222 -5.995575 -5.982291 1.175944 1.194956 0.000619 -0.009648 0.002647 10.270481 0.675507 2.721342 0.281661 -0.955842 0.912104 -5.590096 1.395778 0.707939 0.015364 -0.009794 -0.001231 
